<svg viewBox="0 0 24 24" fill="currentColor" xmlns="http://www.w3.org/2000/svg">
  <!-- Base: ShockedAppIcon (shocked — tall oval eyes, O mouth, arms raised out)
       Preserve the core silhouette and this variant's distinctive features:
       tall oval eye cutouts, O-shaped mouth, arms raised outward.
       Add themed accessories ON TOP. -->

  <!-- Body with tall oval eye cutouts — wide-eyed surprise -->
  <path
    fillRule="evenodd"
    d="M9 4 L15 4 A4 4 0 0 1 19 8 L19 12 A4 4 0 0 1 15 16 L9 16 A4 4 0 0 1 5 12 L5 8 A4 4 0 0 1 9 4 Z M9.5 7.8 A1.2 2.2 0 1 0 9.5 12.2 A1.2 2.2 0 1 0 9.5 7.8 Z M14.5 7.8 A1.2 2.2 0 1 0 14.5 12.2 A1.2 2.2 0 1 0 14.5 7.8 Z"
  />
  <!-- O-shaped mouth -->
  <ellipse cx="12" cy="13.8" rx="0.9" ry="1.1" fill="#222030" />
  <!-- Left arm — raised outward -->
  <g transform="rotate(20 2.5 11)"><path d="M1.8 9 L3.2 9 A0.8 0.8 0 0 1 4 9.8 L4 12.2 A0.8 0.8 0 0 1 3.2 13 L1.8 13 A0.8 0.8 0 0 1 1 12.2 L1 9.8 A0.8 0.8 0 0 1 1.8 9 Z" /></g>
  <!-- Right arm — raised outward -->
  <g transform="rotate(-20 21.5 11)"><path d="M20.8 9 L22.2 9 A0.8 0.8 0 0 1 23 9.8 L23 12.2 A0.8 0.8 0 0 1 22.2 13 L20.8 13 A0.8 0.8 0 0 1 20 12.2 L20 9.8 A0.8 0.8 0 0 1 20.8 9 Z" /></g>
  <!-- Left leg -->
  <rect x="7.2" y="17" width="3.5" height="4" rx="1.2" />
  <!-- Right leg -->
  <rect x="13.3" y="17" width="3.5" height="4" rx="1.2" />
</svg>
